<svg xmlns="http://www.w3.org/2000/svg" viewBox="0 0 24 24" width="24" height="24">
  <path fill="#ffffff" d="M12 0C5.373 0 0 5.373 0 12c0 5.303 3.438 9.8 8.206 11.385.6.111.793-.261.793-.577 0-.285-.01-1.235-.015-2.24-3.338.724-4.042-1.609-4.042-1.609-.546-1.385-1.333-1.755-1.333-1.755-1.088-.741.083-.726.083-.726 1.205.084 1.839 1.235 1.839 1.235 1.07 1.831 2.809 1.303 3.497.998.109-.776.417-1.303.759-1.604-2.665-.307-5.467-1.332-5.467-5.93 0-1.313.471-2.383 1.235-3.223-.125-.307-.536-1.524.116-3.176 0 0 1.008-.322 3.3 1.23a11.488 11.488 0 013.013-.405c1.022.006 2.05.137 3.013.405 2.29-1.552 3.297-1.23 3.297-1.23.655 1.652.244 2.869.119 3.176.769.84 1.234 1.91 1.234 3.223 0 4.61-2.806 5.62-5.478 5.921.43.372.811 1.102.811 2.222 0 1.604-.015 2.893-.015 3.289 0 .32.192.694.799.575C20.565 21.793 24 17.298 24 12c0-6.627-5.373-12-12-12z"/>
</svg>
